<?xml version="1.0" encoding="utf-8"?>
<!-- Generator: Adobe Illustrator 24.0.2, SVG Export Plug-In . SVG Version: 6.00 Build 0)  -->
<svg version="1.1" id="Capa_1" xmlns="http://www.w3.org/2000/svg" xmlns:xlink="http://www.w3.org/1999/xlink" x="0px" y="0px"
	 viewBox="0 0 200 100" style="enable-background:new 0 0 200 100;" xml:space="preserve">
<style type="text/css">
	.st0{fill:#FF8000;stroke:#FF8000;stroke-width:2;stroke-miterlimit:10;}
	.st1{fill:#FF8000;}
	.st2{fill:#FFCD00;stroke:#000000;stroke-width:0.5;stroke-miterlimit:10;}
</style>
<g>
	<path class="st0" d="M11.48,29.23c0-0.98,0.35-1.83,1.04-2.54c0.72-0.7,1.58-1.04,2.58-1.04c0.98,0,1.83,0.35,2.55,1.04
		c0.69,0.72,1.04,1.57,1.04,2.54v14.16c2.67-1.77,5.62-2.66,8.83-2.66h0.27c4.42,0,8.2,1.57,11.34,4.71
		c3.14,3.14,4.71,6.92,4.71,11.34v7.37c0,4.42-1.57,8.2-4.71,11.34c-3.14,3.14-6.92,4.71-11.34,4.71h-0.27
		c-3.27,0-6.25-0.91-8.95-2.74c-0.46,1.83-1.62,2.74-3.47,2.74c-1,0-1.86-0.35-2.58-1.04c-0.69-0.72-1.04-1.58-1.04-2.58V29.23z
		 M18.69,64.14c0,2.44,0.86,4.53,2.58,6.25c1.72,1.72,3.81,2.58,6.25,2.58h0.27c2.42,0,4.49-0.86,6.21-2.58
		c1.75-1.72,2.62-3.81,2.62-6.25v-7.37c0-2.44-0.87-4.53-2.62-6.25c-1.72-1.72-3.79-2.58-6.21-2.58h-0.27
		c-2.44,0-4.53,0.86-6.25,2.58c-1.72,1.72-2.58,3.81-2.58,6.25V64.14z"/>
	<g>
		<path class="st1" d="M52.52,79.15c-0.69-0.72-1.04-1.58-1.04-2.58V44.43c0-1,0.35-1.85,1.04-2.55c0.72-0.69,1.58-1.04,2.58-1.04
			c0.98,0,1.83,0.35,2.55,1.04c0.69,0.7,1.04,1.54,1.04,2.55v32.13c0,1-0.35,1.86-1.04,2.58c-0.72,0.69-1.57,1.04-2.55,1.04
			C54.1,80.19,53.24,79.84,52.52,79.15z"/>
		<path class="st1" d="M55.1,81.19c-1.27,0-2.37-0.44-3.28-1.32l-0.03-0.03c-0.88-0.91-1.32-2.01-1.32-3.28V44.43
			c0-1.27,0.45-2.37,1.33-3.25c0.92-0.89,2.03-1.33,3.29-1.33c1.24,0,2.33,0.44,3.24,1.32c0.9,0.9,1.35,2,1.35,3.27v32.13
			c0,1.27-0.44,2.37-1.32,3.28C57.43,80.75,56.34,81.19,55.1,81.19z M53.23,78.44c0.53,0.5,1.14,0.75,1.88,0.75
			c0.71,0,1.32-0.25,1.85-0.76c0.49-0.5,0.73-1.12,0.73-1.86V44.43c0-0.73-0.25-1.34-0.75-1.84c-0.52-0.5-1.12-0.75-1.84-0.75
			c-0.74,0-1.36,0.25-1.89,0.76c-0.49,0.49-0.74,1.09-0.74,1.83v32.13C52.48,77.3,52.72,77.91,53.23,78.44z"/>
	</g>
	<path class="st0" d="M75.5,26.84c0.69,0.72,1.04,1.57,1.04,2.54v34.76c0,2.44,0.86,4.53,2.58,6.25c1.72,1.72,3.81,2.58,6.25,2.58
		h0.04c1,0,1.85,0.35,2.55,1.04c0.72,0.72,1.08,1.57,1.08,2.55c0,1-0.36,1.86-1.08,2.58c-0.69,0.69-1.54,1.04-2.55,1.04h-0.04
		c-4.42,0-8.2-1.57-11.34-4.71c-3.14-3.14-4.71-6.92-4.71-11.34V29.39c0-0.98,0.35-1.83,1.04-2.54c0.72-0.7,1.58-1.04,2.58-1.04
		C73.93,25.8,74.78,26.15,75.5,26.84z"/>
	<path class="st0" d="M120.48,25.65c1,0,1.85,0.35,2.55,1.04c0.72,0.72,1.08,1.57,1.08,2.54v47.33c0,1-0.36,1.86-1.08,2.58
		c-0.69,0.69-1.54,1.04-2.55,1.04c-1.88,0-3.03-0.91-3.47-2.74c-2.7,1.83-5.68,2.74-8.95,2.74h-0.27c-4.42,0-8.2-1.57-11.34-4.71
		c-3.14-3.14-4.71-6.92-4.71-11.34v-7.37c0-4.42,1.57-8.2,4.71-11.34c3.14-3.14,6.92-4.71,11.34-4.71h0.27
		c3.19,0,6.13,0.89,8.83,2.66V29.23c0-0.98,0.35-1.83,1.04-2.54C118.62,25.99,119.47,25.65,120.48,25.65z M116.89,56.78
		c0-2.44-0.87-4.53-2.62-6.25c-1.72-1.72-3.79-2.58-6.21-2.58h-0.27c-2.44,0-4.53,0.86-6.25,2.58c-1.72,1.72-2.58,3.81-2.58,6.25
		v7.37c0,2.44,0.86,4.53,2.58,6.25c1.72,1.72,3.81,2.58,6.25,2.58h0.27c2.42,0,4.49-0.86,6.21-2.58c1.75-1.72,2.62-3.81,2.62-6.25
		V56.78z"/>
	<path class="st0" d="M162.64,56.89c0,1.31-0.33,2.52-1,3.63c-1.39,2.39-3.46,3.59-6.21,3.59l-17.94,0.04
		c0,2.44,0.86,4.53,2.58,6.25c1.72,1.72,3.81,2.58,6.25,2.58h0.27c2.98,0,5.36-1.22,7.14-3.67c1.03-1.41,2.38-1.83,4.05-1.23
		c1.16,0.39,1.92,1.16,2.28,2.31c0.36,1.18,0.18,2.26-0.54,3.24c-3.21,4.37-7.52,6.56-12.92,6.56h-0.27c-4.4,0-8.17-1.56-11.3-4.67
		c-3.11-3.09-4.69-6.83-4.74-11.22v-7.41c0-4.42,1.57-8.19,4.71-11.3c3.14-3.14,6.92-4.71,11.34-4.71h0.27
		c4.47,0,8.28,1.59,11.42,4.78c1.49,1.52,2.64,3.25,3.43,5.21c0.44,1.05,0.75,2.15,0.93,3.28
		C162.55,55.05,162.64,55.96,162.64,56.89z M137.49,56.93h17.9c-0.03-2.42-0.89-4.5-2.58-6.25c-1.75-1.72-3.82-2.58-6.21-2.58h-0.27
		c-2.44,0-4.53,0.86-6.25,2.58c-1.72,1.72-2.58,3.79-2.58,6.21V56.93z"/>
	<path class="st0" d="M184.89,40.84c1,0,1.85,0.36,2.55,1.08c0.72,0.69,1.08,1.54,1.08,2.55s-0.36,1.85-1.08,2.55
		c-0.69,0.69-1.54,1.04-2.55,1.04h-0.04c-2.44,0-4.53,0.88-6.25,2.62c-1.72,1.72-2.58,3.79-2.58,6.21v19.67c0,1-0.35,1.86-1.04,2.58
		c-0.72,0.69-1.57,1.04-2.55,1.04c-1,0-1.86-0.35-2.58-1.04c-0.69-0.72-1.04-1.58-1.04-2.58V44.39c0-1,0.35-1.85,1.04-2.55
		c0.72-0.72,1.58-1.08,2.58-1.08c0.85,0,1.59,0.27,2.24,0.81c0.64,0.52,1.07,1.18,1.27,2.01c2.67-1.83,5.64-2.74,8.91-2.74H184.89z"
		/>
	<g>
		<g>
			<path class="st2" d="M54.39,19.78c-5.4,0-9.85,4.45-9.85,9.94v3.14l19.7-0.09v-3.14C64.24,24.14,59.79,19.78,54.39,19.78z"/>
		</g>
		<g>
			<path class="st2" d="M65.02,33.99l-10.63,1.39l-10.63-1.31c-0.35,0-0.61-0.26-0.61-0.61l0,0c0-0.35,0.26-0.61,0.61-0.61l0,0
				l21.27-0.09c0.35,0,0.61,0.26,0.61,0.61l0,0C65.72,33.73,65.37,33.99,65.02,33.99L65.02,33.99z"/>
		</g>
		
			<rect x="50.81" y="18.82" transform="matrix(1 -4.014183e-03 4.014183e-03 1 -0.1031 0.2185)" class="st2" width="7.15" height="13.95"/>
	</g>
</g>
</svg>
